<?xml version="1.0" standalone="no"?>
<!DOCTYPE svg PUBLIC "-//W3C//DTD SVG 1.1//EN" "http://www.w3.org/Graphics/SVG/1.1/DTD/svg11.dtd" >
<svg>
<metadata>
Created by FontForge 20110222 at Thu Nov 10 17:49:32 2011
 By www-data
Copyright asherz08 2011
</metadata>
<defs>
<font id="MineCrafter-2.0" horiz-adv-x="960" >
  <font-face 
    font-family="MineCrafter 2.0"
    font-weight="400"
    font-stretch="normal"
    units-per-em="1024"
    panose-1="0 0 4 0 0 0 0 0 0 0"
    ascent="1024"
    descent="0"
    x-height="1024"
    cap-height="1024"
    bbox="0 -640 960 1152"
    underline-thickness="51"
    underline-position="127"
    unicode-range="U+0020-201D"
  />
    <missing-glyph />
    <glyph glyph-name="space" unicode=" " horiz-adv-x="384" 
 />
    <glyph glyph-name="exclam" unicode="!" horiz-adv-x="448" 
d="M0 0v192h256v-192h-256zM64 320v64h-64v640h256v-640h-64v-64h-128z" />
    <glyph glyph-name="quotedbl" unicode="&#x22;" horiz-adv-x="384" 
d="M0 960v128h64v-128h-64zM128 960v128h64v-128h-64z" />
    <glyph glyph-name="quotesingle" unicode="'" horiz-adv-x="256" 
d="M0 960v128h64v-128h-64z" />
    <glyph glyph-name="plus" unicode="+" horiz-adv-x="576" 
d="M128 384v128h-128v128h128v128h128v-128h128v-128h-128v-128h-128z" />
    <glyph glyph-name="comma" unicode="," horiz-adv-x="320" 
d="M64 0v64h-64v64h128v-128h-64z" />
    <glyph glyph-name="hyphen" unicode="-" horiz-adv-x="576" 
d="M0 512v128h384v-128h-384z" />
    <glyph glyph-name="period" unicode="." horiz-adv-x="320" 
d="M0 0v128h128v-128h-128z" />
    <glyph glyph-name="zero" unicode="0" 
d="M448 128v768h-128v-768h128zM0 0v1024h768v-1024h-768z" />
    <glyph glyph-name="one" unicode="1" horiz-adv-x="640" 
d="M128 0v704h-128v192h64v64h64v64h320v-1024h-320z" />
    <glyph glyph-name="two" unicode="2" horiz-adv-x="896" 
d="M0 0v320h64v64h64v64h128v64h64v64h64v64h64v128h-64v64h-128v-64h-64v-64h-192v256h128v64h512v-64h64v-384h-64v-64h-64v-64h-64v-64h-128v-64h-64v-64h384v-256h-704z" />
    <glyph glyph-name="three" unicode="3" 
d="M0 0v256h448v128h-448v256h448v128h-448v256h704v-128h64v-320h-64v-128h64v-320h-64v-128h-704z" />
    <glyph glyph-name="four" unicode="4" 
d="M448 384v320h-64v-64h-64v-128h-64v-128h192zM256 0v192h-256v320h64v128h64v128h64v128h64v64h64v64h384v-512h64v-320h-64v-192h-448z" />
    <glyph glyph-name="five" unicode="5" 
d="M0 0v256h448v128h-320v128h-128v512h768v-256h-448v-128h448v-512h-128v-128h-640z" />
    <glyph glyph-name="six" unicode="6" 
d="M448 192v64h64v128h-64v64h-128v-64h-64v-128h64v-64h128zM128 0v64h-64v64h-64v768h64v64h64v64h576v-256h-448v-128h384v-64h64v-64h64v-384h-64v-64h-64v-64h-512z" />
    <glyph glyph-name="seven" unicode="7" 
d="M256 0v448h64v64h64v64h64v64h64v128h-512v256h768v-448h-64v-64h-64v-64h-64v-64h-64v-384h-256z" />
    <glyph glyph-name="eight" unicode="8" 
d="M448 192v192h-128v-192h128zM448 640v192h-128v-192h128zM128 0v64h-64v64h-64v384h64v64h-64v320h64v64h64v64h512v-64h64v-64h64v-320h-64v-64h64v-384h-64v-64h-64v-64h-512z" />
    <glyph glyph-name="nine" unicode="9" 
d="M448 576v64h64v128h-64v64h-128v-64h-64v-128h64v-64h128zM64 0v256h448v128h-384v64h-64v64h-64v384h64v64h64v64h512v-64h64v-64h64v-768h-64v-64h-64v-64h-576z" />
    <glyph glyph-name="colon" unicode=":" horiz-adv-x="320" 
d="M0 320v192h128v-192h-128zM0 640v192h128v-192h-128z" />
    <glyph glyph-name="semicolon" unicode=";" horiz-adv-x="320" 
d="M64 320v64h-64v128h128v-192h-64zM0 640v192h128v-192h-128z" />
    <glyph glyph-name="less" unicode="&#x3c;" horiz-adv-x="832" 
d="M512 -640v64h-64v64h-64v64h-64v64h-64v64h-64v64h-64v64h-64v64h-64v1280h640v-1792h-128z" />
    <glyph glyph-name="equal" unicode="=" horiz-adv-x="576" 
d="M0 384v128h384v-128h-384zM0 640v128h384v-128h-384z" />
    <glyph glyph-name="greater" unicode="&#x3e;" horiz-adv-x="832" 
d="M0 -640v1792h640v-1280h-64v-64h-64v-64h-64v-64h-64v-64h-64v-64h-64v-64h-64v-64h-64v-64h-128z" />
    <glyph glyph-name="question" unicode="?" horiz-adv-x="896" 
d="M256 0v192h256v-192h-256zM320 320v64h-64v128h64v64h128v256h-256v-128h-192v256h128v64h512v-64h64v-384h-64v-64h-64v-64h-64v-64h-64v-64h-128z" />
    <glyph glyph-name="A" unicode="A" 
d="M512 512v192h-64v64h128v128h-128v-128h-128v128h-128v-128h128v-64h-64v-192h64v64h128v-64h64zM0 0v1024h768v-1024h-320v320h-128v-320h-320z" />
    <glyph glyph-name="B" unicode="B" 
d="M448 256v128h-128v-128h128zM448 640v128h-128v-128h128zM0 0v1024h640v-128h128v-320h-128v-64h128v-512h-768z" />
    <glyph glyph-name="C" unicode="C" horiz-adv-x="1024" 
d="M128 0v128h-128v768h128v128h704v-256h-512v-512h512v-256h-704z" />
    <glyph glyph-name="D" unicode="D" 
d="M448 256v512h-128v-512h128zM0 0v1024h640v-128h128v-768h-128v-128h-640z" />
    <glyph glyph-name="E" unicode="E" 
d="M0 0v1024h768v-256h-448v-128h448v-256h-448v-128h448v-256h-768z" />
    <glyph glyph-name="F" unicode="F" 
d="M0 0v1024h768v-256h-448v-128h448v-256h-448v-384h-320z" />
    <glyph glyph-name="G" unicode="G" horiz-adv-x="1088" 
d="M128 0v128h-128v768h128v128h768v-256h-576v-512h384v64h-128v192h320v-512h-768z" />
    <glyph glyph-name="H" unicode="H" horiz-adv-x="1024" 
d="M0 0v1024h320v-384h192v384h320v-1024h-320v384h-192v-384h-320z" />
    <glyph glyph-name="I" unicode="I" horiz-adv-x="512" 
d="M0 0v1024h320v-1024h-320z" />
    <glyph glyph-name="J" unicode="J" 
d="M0 0v256h448v512h-256v256h576v-1024h-768z" />
    <glyph glyph-name="K" unicode="K" 
d="M0 0v1024h320v-384h64v128h64v128h64v128h256v-320h-128v-128h-64v-128h64v-128h128v-320h-256v128h-64v128h-64v128h-64v-384h-320z" />
    <glyph glyph-name="L" unicode="L" 
d="M0 0v1024h320v-768h448v-256h-768z" />
    <glyph glyph-name="M" unicode="M" horiz-adv-x="1152" 
d="M0 0v1024h320v-128h128v-128h64v128h128v128h320v-1024h-320v448h-64v-128h-192v128h-64v-448h-320z" />
    <glyph glyph-name="N" unicode="N" horiz-adv-x="1152" 
d="M0 0v1024h320v-128h128v-128h128v-128h64v384h320v-1024h-320v128h-128v128h-128v128h-64v-384h-320z" />
    <glyph glyph-name="O" unicode="O" horiz-adv-x="1152" 
d="M640 256v512h-320v-512h320zM128 0v128h-128v768h128v128h704v-128h128v-768h-128v-128h-704z" />
    <glyph glyph-name="P" unicode="P" 
d="M448 640v128h-128v-128h128zM0 0v1024h768v-640h-448v-384h-320z" />
    <glyph glyph-name="Q" unicode="Q" horiz-adv-x="1152" 
d="M512 256v128h128v384h-320v-512h192zM128 0v128h-128v768h128v128h704v-128h128v-640h-64v-64h64v-192h-192v64h-64v-64h-576z" />
    <glyph glyph-name="R" unicode="R" 
d="M448 640v128h-128v-128h128zM0 0v1024h768v-448h-128v-64h128v-512h-320v384h-128v-384h-320z" />
    <glyph glyph-name="S" unicode="S" 
d="M0 0v256h448v128h-448v640h768v-256h-448v-128h448v-640h-768z" />
    <glyph glyph-name="T" unicode="T" horiz-adv-x="1088" 
d="M256 0v768h-256v256h896v-256h-256v-768h-384z" />
    <glyph glyph-name="U" unicode="U" 
d="M0 0v1024h320v-768h128v768h320v-1024h-768z" />
    <glyph glyph-name="V" unicode="V" 
d="M256 0v128h-128v128h-128v768h320v-704h128v704h320v-768h-128v-128h-128v-128h-256z" />
    <glyph glyph-name="W" unicode="W" horiz-adv-x="1152" 
d="M0 0v1024h320v-448h64v128h192v-128h64v448h320v-1024h-320v128h-128v128h-64v-128h-128v-128h-320z" />
    <glyph glyph-name="X" unicode="X" horiz-adv-x="1088" 
d="M0 0v256h128v64h128v128h64v128h-64v128h-128v64h-128v256h320v-128h64v-64h128v64h64v128h320v-256h-128v-64h-128v-128h-64v-128h64v-128h128v-64h128v-256h-320v128h-64v64h-128v-64h-64v-128h-320z" />
    <glyph glyph-name="Y" unicode="Y" 
d="M256 0v256h-128v128h-128v640h320v-640h128v640h320v-640h-128v-128h-128v-256h-256z" />
    <glyph glyph-name="Z" unicode="Z" 
d="M0 0v384h128v128h128v128h192v128h-448v256h768v-384h-128v-128h-128v-128h-192v-128h448v-256h-768z" />
    <glyph glyph-name="asciicircum" unicode="^" horiz-adv-x="320" 
d="M0 -640v1792h128v-1792h-128z" />
    <glyph glyph-name="underscore" unicode="_" horiz-adv-x="640" 
d="M0 0v128h448v-128h-448z" />
    <glyph glyph-name="a" unicode="a" 
d="M448 576v256h-128v-256h128zM0 0v1024h768v-1024h-320v320h-128v-320h-320z" />
    <glyph glyph-name="b" unicode="b" 
d="M448 256v128h-128v-128h128zM448 640v128h-128v-128h128zM0 0v1024h640v-128h128v-320h-128v-64h128v-512h-768z" />
    <glyph glyph-name="c" unicode="c" horiz-adv-x="1024" 
d="M128 0v128h-128v768h128v128h704v-256h-512v-512h512v-256h-704z" />
    <glyph glyph-name="d" unicode="d" 
d="M448 256v512h-128v-512h128zM0 0v1024h640v-128h128v-768h-128v-128h-640z" />
    <glyph glyph-name="e" unicode="e" 
d="M0 0v1024h768v-256h-448v-128h448v-256h-448v-128h448v-256h-768z" />
    <glyph glyph-name="f" unicode="f" 
d="M0 0v1024h768v-256h-448v-128h448v-256h-448v-384h-320z" />
    <glyph glyph-name="g" unicode="g" horiz-adv-x="1088" 
d="M128 0v128h-128v768h128v128h768v-256h-576v-512h384v64h-128v192h320v-512h-768z" />
    <glyph glyph-name="h" unicode="h" horiz-adv-x="1024" 
d="M0 0v1024h320v-384h192v384h320v-1024h-320v384h-192v-384h-320z" />
    <glyph glyph-name="i" unicode="i" horiz-adv-x="512" 
d="M0 0v1024h320v-1024h-320z" />
    <glyph glyph-name="j" unicode="j" 
d="M0 0v256h448v512h-256v256h576v-1024h-768z" />
    <glyph glyph-name="k" unicode="k" 
d="M0 0v1024h320v-384h64v128h64v128h64v128h256v-320h-128v-128h-64v-128h64v-128h128v-320h-256v128h-64v128h-64v128h-64v-384h-320z" />
    <glyph glyph-name="l" unicode="l" 
d="M0 0v1024h320v-768h448v-256h-768z" />
    <glyph glyph-name="m" unicode="m" horiz-adv-x="1152" 
d="M0 0v1024h320v-128h128v-128h64v128h128v128h320v-1024h-320v448h-64v-128h-192v128h-64v-448h-320z" />
    <glyph glyph-name="n" unicode="n" horiz-adv-x="1152" 
d="M0 0v1024h320v-128h128v-128h128v-128h64v384h320v-1024h-320v128h-128v128h-128v128h-64v-384h-320z" />
    <glyph glyph-name="o" unicode="o" horiz-adv-x="1152" 
d="M640 256v512h-320v-512h320zM128 0v128h-128v768h128v128h704v-128h128v-768h-128v-128h-704z" />
    <glyph glyph-name="p" unicode="p" 
d="M448 640v128h-128v-128h128zM0 0v1024h768v-640h-448v-384h-320z" />
    <glyph glyph-name="q" unicode="q" horiz-adv-x="1152" 
d="M512 256v128h128v384h-320v-512h192zM128 0v128h-128v768h128v128h704v-128h128v-640h-64v-64h64v-192h-192v64h-64v-64h-576z" />
    <glyph glyph-name="r" unicode="r" 
d="M448 640v128h-128v-128h128zM0 0v1024h768v-448h-128v-64h128v-512h-320v384h-128v-384h-320z" />
    <glyph glyph-name="s" unicode="s" 
d="M0 0v256h448v128h-448v640h768v-256h-448v-128h448v-640h-768z" />
    <glyph glyph-name="t" unicode="t" horiz-adv-x="1088" 
d="M256 0v768h-256v256h896v-256h-256v-768h-384z" />
    <glyph glyph-name="u" unicode="u" 
d="M0 0v1024h320v-768h128v768h320v-1024h-768z" />
    <glyph glyph-name="v" unicode="v" 
d="M256 0v128h-128v128h-128v768h320v-704h128v704h320v-768h-128v-128h-128v-128h-256z" />
    <glyph glyph-name="w" unicode="w" horiz-adv-x="1152" 
d="M0 0v1024h320v-448h64v128h192v-128h64v448h320v-1024h-320v128h-128v128h-64v-128h-128v-128h-320z" />
    <glyph glyph-name="x" unicode="x" horiz-adv-x="1088" 
d="M0 0v256h128v64h128v128h64v128h-64v128h-128v64h-128v256h320v-128h64v-64h128v64h64v128h320v-256h-128v-64h-128v-128h-64v-128h64v-128h128v-64h128v-256h-320v128h-64v64h-128v-64h-64v-128h-320z" />
    <glyph glyph-name="y" unicode="y" 
d="M256 0v256h-128v128h-128v640h320v-640h128v640h320v-640h-128v-128h-128v-256h-256z" />
    <glyph glyph-name="z" unicode="z" 
d="M0 0v384h128v128h128v128h192v128h-448v256h768v-384h-128v-128h-128v-128h-192v-128h448v-256h-768z" />
    <glyph glyph-name="quoteleft" unicode="&#x2018;" horiz-adv-x="320" 
d="M0 896v128h64v-64h64v-64h-128z" />
    <glyph glyph-name="quoteright" unicode="&#x2019;" horiz-adv-x="320" 
d="M64 960v64h-64v64h128v-128h-64z" />
    <glyph glyph-name="quotedblleft" unicode="&#x201c;" horiz-adv-x="512" 
d="M0 896v128h64v-64h64v-64h-128zM192 896v128h64v-64h64v-64h-128z" />
    <glyph glyph-name="quotedblright" unicode="&#x201d;" horiz-adv-x="512" 
d="M64 896v64h-64v64h128v-128h-64zM256 896v64h-64v64h128v-128h-64z" />
  </font>
</defs>
</svg>
